<svg width="21" height="21" viewBox="0 0 21 21" fill="none" xmlns="http://www.w3.org/2000/svg">
<path d="M10.501 7.35C9.66562 7.35 8.8644 7.68187 8.27366 8.27261C7.68292 8.86335 7.35105 9.66457 7.35105 10.5C7.35105 11.3354 7.68292 12.1366 8.27366 12.7274C8.8644 13.3181 9.66562 13.65 10.501 13.65C11.3365 13.65 12.1377 13.3181 12.7284 12.7274C13.3192 12.1366 13.651 11.3354 13.651 10.5C13.651 9.66457 13.3192 8.86335 12.7284 8.27261C12.1377 7.68187 11.3365 7.35 10.501 7.35ZM10.501 5.25C11.8934 5.25 13.2288 5.80312 14.2134 6.78769C15.1979 7.77225 15.751 9.10761 15.751 10.5C15.751 11.8924 15.1979 13.2277 14.2134 14.2123C13.2288 15.1969 11.8934 15.75 10.501 15.75C9.10866 15.75 7.77331 15.1969 6.78874 14.2123C5.80417 13.2277 5.25105 11.8924 5.25105 10.5C5.25105 9.10761 5.80417 7.77225 6.78874 6.78769C7.77331 5.80312 9.10866 5.25 10.501 5.25ZM17.326 4.9875C17.326 5.3356 17.1878 5.66944 16.9416 5.91558C16.6955 6.16172 16.3616 6.3 16.0135 6.3C15.6655 6.3 15.3316 6.16172 15.0855 5.91558C14.8393 5.66944 14.701 5.3356 14.701 4.9875C14.701 4.6394 14.8393 4.30556 15.0855 4.05942C15.3316 3.81328 15.6655 3.675 16.0135 3.675C16.3616 3.675 16.6955 3.81328 16.9416 4.05942C17.1878 4.30556 17.326 4.6394 17.326 4.9875ZM10.501 2.1C7.90335 2.1 7.47915 2.10735 6.2706 2.1609C5.4474 2.19975 4.8951 2.31 4.3827 2.5095C3.95412 2.66739 3.56656 2.91967 3.2487 3.24765C2.92034 3.5654 2.66769 3.95298 2.5095 4.38165C2.31 4.89615 2.19975 5.4474 2.16195 6.26955C2.10735 7.42875 2.1 7.83405 2.1 10.5C2.1 13.0987 2.10735 13.5219 2.1609 14.7304C2.19975 15.5526 2.31 16.1059 2.50845 16.6173C2.68695 17.074 2.89695 17.4027 3.24555 17.7513C3.5994 18.1041 3.92805 18.3151 4.37955 18.4894C4.89825 18.69 5.45055 18.8013 6.26955 18.8391C7.42875 18.8937 7.83405 18.9 10.5 18.9C13.0987 18.9 13.5219 18.8926 14.7304 18.8391C15.5515 18.8002 16.1038 18.69 16.6173 18.4915C17.0459 18.3337 17.4334 18.0814 17.7513 17.7534C18.1052 17.4006 18.3162 17.0719 18.4905 16.6194C18.69 16.1028 18.8013 15.5505 18.8391 14.7294C18.8937 13.5712 18.9 13.1649 18.9 10.5C18.9 7.9023 18.8926 7.4781 18.8391 6.26955C18.8002 5.44845 18.6889 4.89405 18.4905 4.38165C18.3326 3.95307 18.0803 3.56551 17.7523 3.24765C17.4346 2.91929 17.047 2.66664 16.6183 2.50845C16.1038 2.30895 15.5515 2.1987 14.7304 2.1609C13.5723 2.1063 13.167 2.1 10.5 2.1M10.5 0C13.3528 0 13.7088 0.0104999 14.8291 0.0629999C15.9463 0.1155 16.7086 0.29085 17.3775 0.55125C18.0705 0.81795 18.6543 1.17915 19.2381 1.7619C19.7722 2.28662 20.1854 2.9216 20.4487 3.6225C20.7081 4.29135 20.8845 5.05365 20.937 6.1719C20.9863 7.2912 21 7.64715 21 10.5C21 13.3528 20.9895 13.7088 20.937 14.8281C20.8845 15.9474 20.7081 16.7076 20.4487 17.3775C20.1854 18.0784 19.7722 18.7134 19.2381 19.2381C18.7134 19.7722 18.0784 20.1854 17.3775 20.4487C16.7086 20.7081 15.9463 20.8845 14.8291 20.937C13.7088 20.9863 13.3528 21 10.5 21C7.64715 21 7.2912 20.9895 6.17085 20.937C5.05365 20.8845 4.2924 20.7081 3.6225 20.4487C2.9216 20.1854 2.28662 19.7722 1.7619 19.2381C1.22777 18.7134 0.814607 18.0784 0.55125 17.3775C0.29085 16.7086 0.1155 15.9463 0.0629999 14.8281C0.0125999 13.7088 0 13.3528 0 10.5C0 7.64715 0.0104999 7.2912 0.0629999 6.1719C0.1155 5.0526 0.29085 4.2924 0.55125 3.6225C0.814607 2.9216 1.22777 2.28662 1.7619 1.7619C2.28662 1.22777 2.9216 0.814607 3.6225 0.55125C4.29135 0.29085 5.0526 0.1155 6.17085 0.0629999C7.29225 0.0136499 7.6482 0 10.501 0" fill="#8E8E8E"/>
</svg>
