<svg width="21" height="21" viewBox="0 0 21 21" fill="none" xmlns="http://www.w3.org/2000/svg">
<path d="M3.30142 3.30262C2.90028 3.7096 2.63673 4.281 2.4898 5.36667C2.33937 6.49199 2.33821 7.98231 2.33821 10.1268V10.8731C2.33821 13.0142 2.33937 14.5033 2.4898 15.6275C2.63557 16.7143 2.90028 17.2892 3.30259 17.6997C3.71073 18.0997 4.28213 18.3644 5.36662 18.5101C6.49193 18.6606 7.98223 18.6629 10.1267 18.6629H10.873C13.014 18.6629 14.5032 18.6606 15.6285 18.5101C16.7141 18.3644 17.289 18.0997 17.6995 17.6973C18.0995 17.2904 18.3642 16.719 18.51 15.6333C18.6616 14.508 18.6627 13.0177 18.6627 10.8731V10.1268C18.6627 7.9858 18.6604 6.49665 18.5111 5.3725C18.3642 4.28567 18.0995 3.71077 17.6972 3.30029C17.2902 2.9003 16.7188 2.63559 15.6331 2.48983C14.5078 2.33939 13.0175 2.33706 10.873 2.33706H10.1267C7.98573 2.33706 6.49659 2.33939 5.37245 2.48983C4.28563 2.63559 3.7119 2.9003 3.30142 3.30262ZM10.1267 0.00479872H10.873C12.5581 0.00479872 14.2688 -0.045345 15.9422 0.178552C17.2902 0.359303 18.4318 0.745292 19.3437 1.64788L19.3531 1.65837C20.2545 2.57262 20.6416 3.71426 20.8224 5.06348C21.0451 6.73454 20.995 8.44409 20.995 10.1268V10.8731C20.995 12.557 21.0463 14.2678 20.8212 15.9423C20.6416 17.2904 20.2545 18.432 19.3519 19.3439L19.3414 19.3533C18.4283 20.2547 17.2867 20.6407 15.9363 20.8226C14.2653 21.0453 12.5558 20.9952 10.873 20.9952H10.1267C8.44285 20.9952 6.73215 21.0453 5.05877 20.8214C3.70956 20.6407 2.56793 20.2547 1.65719 19.3521L1.6467 19.3416C0.746451 18.4273 0.359299 17.2857 0.178551 15.9365C-0.0453446 14.2666 0.00479867 12.557 0.00479867 10.8731V10.1268C0.00479867 8.44293 -0.0453444 6.73221 0.179717 5.05765C0.359299 3.7096 0.746451 2.56796 1.64903 1.65604L1.65836 1.64671C2.5726 0.745292 3.71423 0.359303 5.06343 0.177386C6.73565 -0.0441788 8.44518 0.00479872 10.1267 0.00479872ZM3.54514 6.39287C3.65709 11.8504 6.38581 15.1249 11.1716 15.1249H11.4514V12.0043C13.2076 12.1792 14.537 13.4666 15.0687 15.1249H17.5526C17.298 14.1825 16.8464 13.3049 16.2277 12.5499C15.609 11.7949 14.8372 11.1797 13.9633 10.7449C14.7462 10.2679 15.4224 9.63467 15.9497 8.88467C16.477 8.13468 16.844 7.28405 17.0278 6.38587H14.7749C14.2851 8.12107 12.8298 9.69535 11.4514 9.84229V6.39287H9.1915V12.4381C7.79215 12.0883 6.02898 10.395 5.95201 6.39287H3.54514Z" fill="#8E8E8E"/>
</svg>
