<svg width="28" height="17" viewBox="0 0 28 17" fill="none" xmlns="http://www.w3.org/2000/svg">
<path d="M26.8749 16.9986H23.8091C22.6496 16.9986 22.3003 16.0389 20.222 13.9135C18.4056 12.1244 17.6385 11.902 17.179 11.902C16.5436 11.902 16.3702 12.0805 16.3702 12.9743V15.7917C16.3702 16.5538 16.1284 17 14.1804 17C12.2905 16.8702 10.4578 16.2835 8.83331 15.2881C7.20879 14.2926 5.83891 12.917 4.83651 11.2745C2.45723 8.24648 0.80126 4.6934 0 0.897212C0 0.427639 0.174652 0.00200225 1.0506 0.00200225H4.11372C4.901 0.00200225 5.18447 0.360361 5.49347 1.18829C6.9807 5.66159 9.51852 9.55274 10.549 9.55274C10.9439 9.55274 11.1159 9.37424 11.1159 8.36782V3.75996C10.9856 1.65787 9.89335 1.48075 9.89335 0.720092C9.90717 0.519413 9.99699 0.332143 10.1437 0.19806C10.2905 0.0639773 10.4826 -0.00635506 10.6793 0.00200225H15.4943C16.1526 0.00200225 16.3702 0.337019 16.3702 1.14161V7.36139C16.3702 8.0328 16.6524 8.25523 16.8512 8.25523C17.2462 8.25523 17.5498 8.0328 18.2739 7.29412C19.8255 5.35906 21.0936 3.20376 22.0384 0.895839C22.1346 0.618439 22.3172 0.380945 22.5582 0.219748C22.7991 0.0585516 23.0852 -0.0174551 23.3724 0.00337518H26.4369C27.3558 0.00337518 27.5506 0.472949 27.3558 1.14298C26.2409 3.69446 24.8618 6.11656 23.2421 8.36782C22.9116 8.8827 22.78 9.15044 23.2421 9.75457C23.5457 10.2241 24.6205 11.1413 25.342 12.0132C26.3926 13.0841 27.2645 14.3226 27.9241 15.6792C28.1874 16.5524 27.7495 16.9986 26.8749 16.9986Z" fill="#8E8E8E"/>
</svg>
